<svg width="264" height="289" viewBox="0 0 264 289" fill="none" xmlns="http://www.w3.org/2000/svg">
<path d="M133.906 163.775L132.466 84.3023C130.857 85.1495 126.452 86.3357 119.338 88.0302C112.223 89.7247 107.48 90.7414 105.109 91.1651C102.653 91.6734 101.213 93.1137 100.874 95.3166C100.535 97.6042 100.112 100.061 99.6035 102.603C99.0953 104.975 98.5871 107.348 98.0789 109.72C97.5707 112.092 97.0626 114.465 96.5544 116.922C95.538 121.751 94.5217 126.496 93.5053 131.071C92.4042 135.731 91.3879 140.391 90.5409 145.051C89.8633 148.355 88.6776 153.184 87.153 159.539C85.5438 165.978 84.7815 170.553 84.7815 173.434L84.0192 173.349L64.0308 22.876L5.2512 17.3688L65.4706 259.176C66.487 259.092 68.435 257.99 71.23 255.957C74.025 253.923 76.0577 252.483 77.2435 251.636C79.7844 249.941 81.7324 248.586 82.9182 247.654C84.1039 246.722 85.205 244.604 86.1367 241.215C87.4071 236.131 88.847 231.217 90.4562 226.303C91.9807 221.389 93.5053 216.39 95.0298 211.137C95.4533 209.442 96.5544 205.545 98.4177 199.275C100.196 193.09 102.144 186.566 104.177 179.704C106.21 172.841 108.158 166.571 109.936 160.979C111.63 155.387 112.731 152.337 113.155 151.744L129.078 257.228C131.449 257.058 135.43 256.126 141.19 254.262C146.949 252.483 151.184 251.128 153.979 250.28C156.181 249.687 158.214 249.094 160.162 248.586C162.025 248.077 164.142 247.484 166.345 246.807C168.208 246.298 169.394 244.858 170.071 242.485C170.664 240.113 171.257 238.08 171.935 236.47C173.29 232.573 174.645 228.76 176.169 224.947C177.694 221.135 179.134 217.237 180.489 213.17C181.675 209.442 183.115 205.545 184.893 201.478C186.672 197.411 188.027 193.514 188.874 189.786H191.754C192.77 189.786 194.549 185.634 197.259 177.331C199.969 169.028 201.663 164.029 202.341 162.335C203.018 160.64 204.712 155.811 207.507 147.762C210.302 139.798 211.827 135.138 211.996 133.952L202.849 134.884C204.712 126.411 207.168 117.769 210.218 108.873C213.267 100.061 215.977 91.2498 218.433 82.6077C219.449 78.8798 222.244 69.7294 226.987 54.9871C231.731 40.3295 234.102 32.1111 234.102 30.4166C234.102 28.8068 232.662 24.8247 229.952 18.555C227.157 12.2853 225.463 7.87951 224.955 5.33773C223.176 5.50718 219.449 6.69335 213.775 8.81149C208.015 11.0144 204.119 12.4547 201.917 13.1325C198.021 14.4881 194.125 15.8437 190.229 17.1994C186.248 18.6397 182.352 19.9953 178.626 21.1815C171.85 23.5538 167.954 24.9941 167.107 25.5025C166.26 26.0956 164.989 30.0777 163.465 37.3641C162.449 41.7699 161.432 46.0909 160.416 50.3272C159.399 54.5635 158.468 58.715 157.621 62.7819C157.028 65.4084 155.503 72.017 153.132 82.6925C150.76 93.3679 148.135 104.552 145.424 116.413C142.629 128.275 140.089 139.035 137.802 148.694C135.515 158.353 134.244 163.352 133.906 163.775ZM226.395 0H227.326L227.834 1.01671L228.343 1.9487L228.851 3.47376L229.274 4.82938L229.782 5.84609L230.291 7.28643L230.799 8.21841L231.222 9.65875L231.731 11.1838L232.154 12.1158L233.17 14.9965L233.679 15.9285L234.102 17.3688L234.61 18.3855L235.118 19.8259L235.542 21.2662L236.05 22.1982L236.558 23.6385L236.982 25.0789L237.49 26.0956L237.998 27.4512L238.422 28.4679L239.946 32.7889L240.37 33.8056L240.878 35.246L241.301 36.6863L241.809 38.1266L242.318 39.0586L242.826 40.499L243.249 41.9393L244.266 44.82L244.774 45.8367L245.197 47.277L245.705 48.7174L246.129 50.1577L246.637 51.0897L247.654 53.9704L248.077 55.4107L248.585 56.4274L249.602 59.3081L250.025 60.7485L250.533 61.6804L250.957 63.1208L251.465 64.5611L251.973 66.0862L252.481 67.4418L252.905 68.4585L253.921 71.3392L254.345 72.7795L254.853 73.7115L255.361 75.1519L255.784 76.5922L256.293 78.1173L256.801 79.0493L257.224 80.4896L258.241 83.3703L258.749 84.3023L259.172 85.8273L259.68 87.1829L260.104 88.708L260.612 90.1483L261.12 91.0803L261.628 92.5207L262.052 93.961L262.56 95.4013L263.068 96.4181L263.577 97.8584L264 99.2987V102.179L263.577 103.62L263.068 105.06L262.56 106.924L262.052 108.449L261.628 109.889L261.12 111.753L260.612 113.279L260.104 114.634L259.68 116.583L259.172 118.108L258.749 119.464L258.241 121.412L257.224 124.293L256.801 126.157L256.293 127.682L255.784 129.122L255.361 130.986L254.853 132.427L254.345 133.952L253.921 135.816L252.905 138.696L252.481 140.645L251.465 143.526L250.957 145.474L250.533 146.915L250.025 148.355L249.602 150.304L248.585 153.184L248.077 155.133L247.654 156.573L247.145 158.014L246.637 159.878L246.129 161.403L245.705 162.758L245.197 164.707L244.774 166.147L244.266 167.588L243.757 169.536L243.249 170.977L242.826 172.417V173.858L243.249 174.366L243.757 175.298L244.266 176.315L244.774 176.823L245.197 177.755L245.705 178.687L246.129 179.195L246.637 180.127L247.145 182.076V183.008L246.637 184.025L246.129 185.465L245.705 186.905L245.197 188.346L244.774 189.786L243.249 194.107L242.826 195.547L242.318 196.564L241.809 197.92L241.301 199.445L240.878 200.885L240.37 202.325L239.946 203.766L238.422 208.087L237.998 209.019L236.982 211.899L236.558 213.34L236.05 214.78L235.542 216.305L235.118 217.661L234.61 219.186L234.102 220.118L233.679 221.558L232.154 225.879L231.731 227.32L231.222 228.76L230.799 230.2L230.291 230.709L229.274 231.217L228.851 231.725L228.343 232.149H226.395V233.589L225.971 235.03L225.463 236.47L224.955 237.487L224.447 238.927L224.023 240.367L223.515 241.299L222.499 244.18L222.075 245.62L221.567 246.637L221.143 248.077L220.127 250.958L219.619 251.89L219.195 253.33L218.687 254.771L218.179 256.296L217.756 257.228L216.739 260.108L216.316 261.549L215.808 262.481L215.299 263.921L214.876 265.361L214.368 266.802L213.859 267.819L213.351 269.259L212.928 270.699L212.42 271.631L211.996 273.072L211.488 274.512L210.98 276.037H209.54V276.969L208.608 277.393L207.168 277.901L205.22 278.409L203.781 278.918L201.833 279.341L200.393 279.85L198.529 280.273L197.005 280.782L195.057 281.29L193.702 281.798L191.754 282.222L190.314 282.73L188.366 283.239L186.926 283.747L184.978 284.171L183.538 284.679L181.59 285.103L180.15 285.611L178.202 286.119L176.762 286.628H173.374L171.511 285.611L170.495 285.103L169.563 284.679L168.631 284.171L167.615 283.747L165.752 282.73L165.243 282.222L164.227 281.798L162.364 280.782L161.347 280.273L160.416 279.85L159.399 279.341L158.468 278.918L157.536 278.409L156.52 277.901L155.588 277.393L154.572 276.969L153.64 276.461L153.217 276.037L152.2 275.529L151.269 275.02L150.252 274.512L149.32 274.088L148.389 273.58L147.372 273.072L146.441 272.563L145.424 272.14L145.001 272.563L144.493 274.088L144.069 275.529L143.561 276.037L143.053 276.969L142.121 277.393L141.613 277.901L140.597 278.409L140.173 278.918L139.665 279.341L138.733 279.85L138.225 280.273L137.294 280.782L136.785 281.29L135.769 281.798L134.837 282.73L133.906 283.239L133.397 283.747L132.466 284.171L131.958 284.679L131.449 285.103L130.518 285.611L130.01 286.119L129.078 286.628L128.57 287.051L127.638 287.56L127.13 287.983L126.622 288.492L125.69 289H122.81L121.794 288.492L120.439 287.983L119.423 287.56L117.983 287.051L117.051 286.628L115.611 286.119L114.595 285.611L113.663 285.103L112.223 284.679L111.207 284.171L109.767 283.747L108.835 283.239L107.396 282.73L106.464 282.222L104.939 281.798L104.008 281.29L102.568 280.782L101.636 280.273L100.112 279.85L99.18 279.341L97.7401 278.918L96.8085 278.409L95.2839 277.901L94.3523 277.393L92.9124 276.969L91.9807 276.461L90.5409 276.037L89.5245 275.529L88.0847 275.02L87.153 274.512L85.7132 274.088L84.7815 273.58L83.257 273.072L82.3253 272.563L80.8855 272.14L79.9538 271.631L78.4293 271.208L77.4976 270.699L76.0577 270.191L75.1261 269.682L73.6015 269.259L72.6699 268.751L71.23 268.242L70.2984 267.819L68.8585 267.31L67.8422 266.802L66.4023 266.378L65.4706 265.87H64.4543L64.0308 266.378H63.0144L62.5063 264.938L62.0828 262.989L61.5746 261.04L61.1511 259.176L59.6266 253.33L59.2031 251.466L57.6785 245.62L57.2551 243.756L56.7469 241.808L56.3234 239.859L55.8152 237.91L55.307 236.046L54.7988 234.098L54.3754 232.149L53.8672 230.2L53.359 228.336L52.9355 226.388L51.9192 222.49L51.4957 220.626L50.4793 216.729L50.0558 214.78L49.5476 212.916L48.5313 209.019L48.1078 207.155L47.5996 205.206L47.1761 203.257L46.6679 201.309L46.1598 199.445L45.6516 197.496L45.2281 195.547L44.7199 193.599L44.2117 191.735L43.7036 189.786L43.2801 187.837L42.7719 185.889L42.3484 184.025L40.8239 178.179L40.4004 176.315L39.384 172.417L38.9605 170.468L38.4524 168.605L37.9442 166.656L37.5207 164.707L37.0125 162.758L36.5043 160.894L35.9961 158.946L35.6574 156.997L35.1492 155.133L34.641 153.184L34.2175 151.236L33.7093 149.372L33.2012 147.423L32.7777 145.474L32.2695 143.526L31.7613 141.662L31.3378 139.713L30.3215 135.816L29.898 133.952L28.8816 130.054L28.4581 128.106L27.95 126.157L27.4418 124.293L26.9336 122.344L26.5101 120.48L25.4937 116.583L25.0703 114.634L24.5621 112.262L24.0539 110.313L23.6304 108.449L22.1059 102.603L21.6824 100.739L21.1742 98.7904L20.7507 96.8417L20.2425 94.893L19.7344 93.029L19.2262 91.0803L18.8027 89.1316L18.2945 87.1829L17.7863 85.319L17.2782 83.3703L16.8547 81.4216L16.3465 79.4729L15.923 77.6089L14.9066 73.7115L14.3985 71.8476L13.975 69.8989L13.4668 67.9502L12.9586 66.0862L12.5351 64.1375L11.5188 60.2401L11.0953 58.3761L10.0789 54.4787L9.65544 52.53L9.14726 50.6661L8.13089 46.7687L7.70741 44.82L7.19923 42.956L6.77575 41.0073L5.75938 37.1099L5.2512 35.246L4.82772 33.2973L3.30318 27.4512L2.87969 25.5872L2.37151 23.6385L1.94803 21.6898L1.43985 19.8259L0.423484 15.9285L0 14.0645V12.5394H1.43985L6.77575 13.0478L11.5188 13.5561L16.8547 14.0645L21.6824 14.4881L26.9336 14.9965L32.2695 15.5048L37.0125 15.9285L42.3484 16.4368L47.1761 16.9452L52.4273 17.3688L57.6785 17.8772L62.5063 18.3855L67.8422 18.8091L68.3503 20.2495L68.8585 20.7578L69.282 21.2662L69.7902 22.1982L70.2984 22.7065L70.7218 23.2149L71.23 23.6385L71.7382 24.5705L72.1617 25.0789L73.6015 26.5192L74.1097 27.4512L75.1261 28.4679L75.5496 28.9763L76.0577 29.3999L76.4812 30.4166L76.9894 30.9249L77.4976 31.3486L78.0058 31.8569L78.4293 32.7889L79.4456 33.8056L79.9538 34.2293L80.3773 34.7376L80.8855 35.6696L81.3089 36.178L81.8171 36.6863L82.3253 37.1099L82.8335 37.6183L83.257 38.635L83.7652 39.0586L84.2733 39.567L84.7815 39.9906L85.205 41.0073L87.153 42.956L87.6612 43.888L88.0847 44.3964L88.5929 44.82L89.1011 45.3283L89.5245 45.8367L90.0327 46.7687L91.4726 48.209L91.9807 49.141L92.4042 49.6494L93.4206 50.6661L93.9288 51.0897L94.3523 52.0217L94.8604 52.53L95.2839 53.0384L95.7921 53.5468L96.3003 53.9704L96.8085 54.9871L98.2483 56.4274L98.7565 57.3594L99.18 57.8678L100.62 59.3081L101.128 60.2401L101.636 60.7485L102.06 61.2568L102.568 61.6804L103.076 62.1888L103.5 63.1208L104.939 64.5611L105.448 65.5778L105.956 66.0862L106.464 66.5098L106.887 67.0182L107.396 67.4418L107.904 68.4585L108.327 68.9669L108.835 69.3905L109.344 69.8989L109.767 70.4072L110.275 71.3392L111.715 72.7795L112.223 73.7115L112.647 74.2199L113.155 74.7282L113.663 75.1519L114.087 75.6602L114.595 76.5922L115.611 77.6089L116.035 78.1173L116.543 78.5409L117.051 79.4729L117.474 79.9812L118.491 80.9979L118.914 81.9299L119.423 82.4383L119.931 82.8619H120.439L122.302 82.4383L126.198 81.4216L128.146 80.9979L130.518 80.4896L134.414 79.4729H136.277L136.785 81.4216L137.294 81.9299L137.717 82.4383L138.225 83.3703L138.733 83.8786L139.242 84.3023L139.665 85.319L141.105 86.7593L141.613 87.6913L142.121 88.1996L142.545 88.708L143.053 89.64L143.561 90.1483L144.069 90.572L144.493 91.5887L145.001 92.0123L145.424 92.5207L145.933 93.5374L146.441 92.0123L146.949 89.64L147.372 87.6913L147.881 85.8273L148.389 83.3703L148.812 81.4216L149.32 79.4729L149.829 77.1006L150.252 75.1519L150.76 73.2879L151.269 70.8308L151.692 68.9669L152.2 67.0182L152.708 64.5611L153.217 62.6972L153.64 60.7485L154.148 58.3761L154.572 56.4274L155.08 54.4787L155.588 52.0217L156.096 50.1577L156.52 48.209L157.028 45.8367L158.044 41.9393L158.468 39.567L158.976 37.6183L159.399 35.6696L159.908 33.2973L160.924 29.3999L161.347 27.0276L161.856 25.0789L162.364 23.2149L162.872 22.1982L163.804 21.6898L164.735 21.2662L167.615 20.2495L169.055 19.8259L170.495 19.3175L172.019 18.8091L173.374 18.3855L174.899 17.8772L176.339 17.3688L177.27 16.9452L180.15 15.9285L181.59 15.5048L183.03 14.9965L184.554 14.4881L185.91 14.0645L187.434 13.5561L188.874 13.0478L189.806 12.5394L191.245 12.1158L192.685 11.6074L194.125 11.1838L197.005 10.1671L198.529 9.65875L199.884 9.23512L201.409 8.72677L202.849 8.21841L203.781 7.71006L205.22 7.28643L206.66 6.77807L208.1 6.35444L212.42 4.82938L213.859 4.40575L215.299 3.89739L216.316 3.47376L220.635 1.9487L222.075 1.52507L226.395 0Z" fill="white"/>
</svg>
